<svg width="200" height="200" viewBox="0 0 200 200" fill="none" xmlns="http://www.w3.org/2000/svg">
<g clip-path="url(#clip0_171_45)">
<path d="M169.231 0H30.7692C13.7759 0 0 13.7759 0 30.7692V169.231C0 186.224 13.7759 200 30.7692 200H169.231C186.224 200 200 186.224 200 169.231V30.7692C200 13.7759 186.224 0 169.231 0Z" fill="#0B8CE8"/>
<path d="M131.772 91.476V76.6945H117.031C115.226 76.6945 113.731 76.1003 112.547 74.9123C111.362 73.724 110.769 72.2252 110.769 70.4157C110.769 68.6065 111.362 67.1077 112.547 65.9194C113.731 64.7314 115.226 64.1372 117.031 64.1372H131.772V49.3554C131.772 47.5462 132.364 46.0474 133.549 44.8591C134.734 43.6711 136.229 43.0769 138.033 43.0769C139.838 43.0769 141.332 43.6711 142.517 44.8591C143.702 46.0474 144.295 47.5462 144.295 49.3554V64.1372H159.036C160.84 64.1372 162.335 64.7314 163.52 65.9194C164.705 67.1077 165.297 68.6065 165.297 70.4157C165.297 72.2252 164.705 73.724 163.52 74.9123C162.335 76.1003 160.84 76.6945 159.036 76.6945H144.295V91.476C144.295 93.2855 143.702 94.7843 142.517 95.9726C141.332 97.1606 139.838 97.7548 138.033 97.7548C136.229 97.7548 134.734 97.1606 133.549 95.9726C132.364 94.7843 131.772 93.2855 131.772 91.476Z" fill="#F3F9FE"/>
<path d="M155.399 159.922H118.645C116.841 159.922 115.346 159.328 114.161 158.14C112.976 156.952 112.384 155.453 112.384 153.643C112.384 151.834 112.976 150.335 114.161 149.147C115.346 147.959 116.841 147.365 118.645 147.365H155.399C157.204 147.365 158.699 147.959 159.883 149.147C161.068 150.335 161.661 151.834 161.661 153.643C161.661 155.453 161.068 156.952 159.883 158.14C158.699 159.328 157.204 159.922 155.399 159.922Z" fill="#F3F9FE"/>
<path d="M155.399 133.597H118.645C116.841 133.597 115.346 133.003 114.161 131.814C112.976 130.626 112.384 129.128 112.384 127.318C112.384 125.509 112.976 124.01 114.161 122.822C115.346 121.634 116.841 121.039 118.645 121.039H155.399C157.204 121.039 158.699 121.634 159.883 122.822C161.068 124.01 161.661 125.509 161.661 127.318C161.661 129.128 161.068 130.626 159.883 131.814C158.699 133.003 157.204 133.597 155.399 133.597Z" fill="#F3F9FE"/>
<path d="M49.7868 138.343C47.9582 138.343 46.2652 138.198 44.708 137.908C43.1757 137.641 41.9526 137.326 41.0382 136.963L44.152 126.724C46.1043 127.281 47.8468 127.547 49.3791 127.523C50.9114 127.499 52.2585 127.027 53.42 126.106C54.6062 125.211 55.6071 123.71 56.4228 121.605L57.572 118.591L36.9231 61.6569H51.1585L64.2819 103.776H64.8751L78.0354 61.6569H92.3077L69.5089 124.182C68.4462 127.136 67.0376 129.665 65.2828 131.771C63.528 133.902 61.3779 135.523 58.8323 136.637C56.3114 137.774 53.2963 138.343 49.7868 138.343Z" fill="#F3F9FE"/>
</g>
<defs>
<clipPath id="clip0_171_45">
<rect width="200" height="200" fill="white"/>
</clipPath>
</defs>
</svg>
