<svg width="180" height="180" viewBox="0 0 180 180" fill="none" xmlns="http://www.w3.org/2000/svg">
<rect width="180" height="180" rx="50" fill="#0B8CE8"/>
<path d="M132.299 132H104.701C103.346 132 102.224 131.555 101.335 130.665C100.445 129.776 100 128.653 100 127.298C100 125.943 100.445 124.821 101.335 123.931C102.224 123.041 103.346 122.596 104.701 122.596H132.299C133.654 122.596 134.776 123.041 135.665 123.931C136.555 124.821 137 125.943 137 127.298C137 128.653 136.555 129.776 135.665 130.665C134.776 131.555 133.654 132 132.299 132Z" fill="#F3F9FE"/>
<path d="M132.299 112.285H104.701C103.346 112.285 102.224 111.84 101.335 110.951C100.445 110.061 100 108.939 100 107.583C100 106.228 100.445 105.106 101.335 104.216C102.224 103.326 103.346 102.882 104.701 102.882H132.299C133.654 102.882 134.776 103.326 135.665 104.216C136.555 105.106 137 106.228 137 107.583C137 108.939 136.555 110.061 135.665 110.951C134.776 111.84 133.654 112.285 132.299 112.285Z" fill="#F3F9FE"/>
<path d="M126.233 78.4058L118.5 70.6718L110.767 78.4058C109.787 79.3863 108.685 79.8766 107.461 79.8766C106.238 79.8766 105.136 79.3863 104.155 78.4058C103.175 77.4254 102.697 76.3108 102.722 75.0622C102.747 73.8136 103.185 72.7241 104.035 71.7936L111.888 63.817L104.155 56.083C103.175 55.1025 102.685 54.0005 102.685 52.7768C102.685 51.5532 103.175 50.4512 104.155 49.4707C105.136 48.4902 106.25 48.0125 107.499 48.0375C108.747 48.0624 109.836 48.5402 110.767 49.4707L118.5 57.2048L126.233 49.4707C127.214 48.4902 128.315 48 129.539 48C130.762 48 131.864 48.4902 132.845 49.4707C133.825 50.4512 134.303 51.5657 134.278 52.8143C134.253 54.0629 133.775 55.1525 132.845 56.083L125.112 63.817L132.965 71.7936C133.865 72.774 134.295 73.8965 134.254 75.1608C134.213 76.4239 133.744 77.5055 132.845 78.4058C131.864 79.3863 130.75 79.8641 129.501 79.8391C128.253 79.8141 127.164 79.3364 126.233 78.4058Z" fill="#F3F9FE"/>
<path fill-rule="evenodd" clip-rule="evenodd" d="M46.5957 56.2537C47.9161 55.8461 49.3575 55.9405 50.6028 56.5162C51.848 57.0918 52.7952 58.1016 53.2359 59.3233L64.002 89.2137L74.7681 59.3233C75.208 58.1009 76.1548 57.0902 77.4001 56.5136C78.6454 55.937 80.0872 55.8418 81.4083 56.2488C82.7295 56.6559 83.8218 57.5319 84.445 58.6842C85.0681 59.8364 85.171 61.1705 84.7311 62.393L66.1279 114.043C65.0816 116.943 63.0759 119.465 60.3947 121.252C57.7136 123.039 54.493 124 51.1887 124H48.2544C46.8622 124 45.5271 123.488 44.5427 122.577C43.5582 121.667 43.0052 120.431 43.0052 119.143C43.0052 117.855 43.5582 116.619 44.5427 115.708C45.5271 114.798 46.8622 114.286 48.2544 114.286H51.1887C52.29 114.285 53.363 113.964 54.2561 113.368C55.1492 112.771 55.8169 111.93 56.1649 110.964L58.4693 104.572L43.2677 62.393C42.829 61.1712 42.9326 59.8382 43.5557 58.687C44.1787 57.5357 45.2755 56.6605 46.5957 56.2537Z" fill="#F3F9FE"/>
</svg>
